<svg width="289" height="56" viewBox="0 0 289 56" fill="none" xmlns="http://www.w3.org/2000/svg">
<rect width="289" height="56" fill="#D9D9D9"/>
<rect x="9" y="7" width="53" height="39" fill="#97C859"/>
<path d="M26.0481 30V28.7855L30.6092 23.7926C31.1444 23.2079 31.5852 22.6996 31.9316 22.2678C32.278 21.8314 32.5343 21.4221 32.7008 21.0398C32.8717 20.6529 32.9572 20.2481 32.9572 19.8253C32.9572 19.3395 32.8402 18.9189 32.6063 18.5636C32.3769 18.2082 32.062 17.9338 31.6617 17.7404C31.2614 17.547 30.8116 17.4503 30.3123 17.4503C29.7815 17.4503 29.3182 17.5605 28.9224 17.7809C28.531 17.9968 28.2274 18.3004 28.0115 18.6918C27.8001 19.0831 27.6944 19.5419 27.6944 20.0682H26.1021C26.1021 19.2585 26.2887 18.5478 26.6621 17.9361C27.0354 17.3243 27.5437 16.8475 28.1869 16.5057C28.8347 16.1638 29.5611 15.9929 30.3663 15.9929C31.1759 15.9929 31.8934 16.1638 32.5186 16.5057C33.1438 16.8475 33.6341 17.3086 33.9895 17.8888C34.3448 18.4691 34.5225 19.1146 34.5225 19.8253C34.5225 20.3336 34.4303 20.8306 34.2459 21.3164C34.0659 21.7977 33.7511 22.3352 33.3013 22.929C32.856 23.5182 32.2375 24.2379 31.4458 25.0881L28.3421 28.4077V28.5156H34.7654V30H26.0481ZM38.7665 19.6364L41.2494 23.8736L43.7324 19.6364H45.5676L42.221 24.8182L45.5676 30H43.7324L41.2494 25.9787L38.7665 30H36.9312L40.2239 24.8182L36.9312 19.6364H38.7665Z" fill="black"/>
<rect x="71" y="7" width="53" height="39" fill="#C89C59"/>
<path d="M92.3384 30.1889C91.5468 30.1889 90.8338 30.0315 90.1996 29.7166C89.5653 29.4018 89.0571 28.9699 88.6747 28.4212C88.2924 27.8724 88.0832 27.2472 88.0472 26.5455H89.6665C89.7295 27.1707 90.0129 27.688 90.5167 28.0973C91.025 28.5021 91.6322 28.7045 92.3384 28.7045C92.9052 28.7045 93.409 28.5719 93.8498 28.3065C94.2951 28.0411 94.6437 27.6767 94.8956 27.2134C95.152 26.7456 95.2802 26.2171 95.2802 25.6278C95.2802 25.0251 95.1475 24.4876 94.8821 24.0153C94.6212 23.5385 94.2614 23.1629 93.8026 22.8885C93.3438 22.6141 92.8197 22.4747 92.2305 22.4702C91.8076 22.4657 91.3736 22.5309 90.9283 22.6658C90.483 22.7963 90.1164 22.965 89.8285 23.1719L88.2631 22.983L89.0998 16.1818H96.2788V17.6662H90.5032L90.0174 21.7415H90.0984C90.3817 21.5166 90.7371 21.3299 91.1644 21.1815C91.5917 21.033 92.0371 20.9588 92.5004 20.9588C93.346 20.9588 94.0994 21.1612 94.7607 21.5661C95.4264 21.9664 95.9482 22.5152 96.326 23.2124C96.7083 23.9096 96.8995 24.7057 96.8995 25.6009C96.8995 26.4825 96.7016 27.2696 96.3058 27.9624C95.9144 28.6506 95.3746 29.1948 94.6864 29.5952C93.9982 29.991 93.2156 30.1889 92.3384 30.1889ZM100.794 19.6364L103.277 23.8736L105.76 19.6364H107.595L104.249 24.8182L107.595 30H105.76L103.277 25.9787L100.794 30H98.9591L102.252 24.8182L98.9591 19.6364H100.794Z" fill="black"/>
<rect x="228" y="7" width="53" height="39" fill="#97C859"/>
<path d="M245.048 30V28.7855L249.609 23.7926C250.144 23.2079 250.585 22.6996 250.932 22.2678C251.278 21.8314 251.534 21.4221 251.701 21.0398C251.872 20.6529 251.957 20.2481 251.957 19.8253C251.957 19.3395 251.84 18.9189 251.606 18.5636C251.377 18.2082 251.062 17.9338 250.662 17.7404C250.261 17.547 249.812 17.4503 249.312 17.4503C248.782 17.4503 248.318 17.5605 247.922 17.7809C247.531 17.9968 247.227 18.3004 247.011 18.6918C246.8 19.0831 246.694 19.5419 246.694 20.0682H245.102C245.102 19.2585 245.289 18.5478 245.662 17.9361C246.035 17.3243 246.544 16.8475 247.187 16.5057C247.835 16.1638 248.561 15.9929 249.366 15.9929C250.176 15.9929 250.893 16.1638 251.519 16.5057C252.144 16.8475 252.634 17.3086 252.989 17.8888C253.345 18.4691 253.523 19.1146 253.523 19.8253C253.523 20.3336 253.43 20.8306 253.246 21.3164C253.066 21.7977 252.751 22.3352 252.301 22.929C251.856 23.5182 251.237 24.2379 250.446 25.0881L247.342 28.4077V28.5156H253.765V30H245.048ZM257.766 19.6364L260.249 23.8736L262.732 19.6364H264.568L261.221 24.8182L264.568 30H262.732L260.249 25.9787L257.766 30H255.931L259.224 24.8182L255.931 19.6364H257.766Z" fill="black"/>
<rect x="168" y="7" width="53" height="39" fill="#C89C59"/>
<path d="M189.338 30.1889C188.547 30.1889 187.834 30.0315 187.2 29.7166C186.565 29.4018 186.057 28.9699 185.675 28.4212C185.292 27.8724 185.083 27.2472 185.047 26.5455H186.667C186.73 27.1707 187.013 27.688 187.517 28.0973C188.025 28.5021 188.632 28.7045 189.338 28.7045C189.905 28.7045 190.409 28.5719 190.85 28.3065C191.295 28.0411 191.644 27.6767 191.896 27.2134C192.152 26.7456 192.28 26.2171 192.28 25.6278C192.28 25.0251 192.147 24.4876 191.882 24.0153C191.621 23.5385 191.261 23.1629 190.803 22.8885C190.344 22.6141 189.82 22.4747 189.23 22.4702C188.808 22.4657 188.374 22.5309 187.928 22.6658C187.483 22.7963 187.116 22.965 186.828 23.1719L185.263 22.983L186.1 16.1818H193.279V17.6662H187.503L187.017 21.7415H187.098C187.382 21.5166 187.737 21.3299 188.164 21.1815C188.592 21.033 189.037 20.9588 189.5 20.9588C190.346 20.9588 191.099 21.1612 191.761 21.5661C192.426 21.9664 192.948 22.5152 193.326 23.2124C193.708 23.9096 193.9 24.7057 193.9 25.6009C193.9 26.4825 193.702 27.2696 193.306 27.9624C192.914 28.6506 192.375 29.1948 191.686 29.5952C190.998 29.991 190.216 30.1889 189.338 30.1889ZM197.794 19.6364L200.277 23.8736L202.76 19.6364H204.595L201.249 24.8182L204.595 30H202.76L200.277 25.9787L197.794 30H195.959L199.252 24.8182L195.959 19.6364H197.794Z" fill="black"/>
<rect x="129" y="7" width="34" height="39" fill="#D63A3A"/>
<path d="M137.756 18.3636V30H136.347V19.8409H136.279L133.438 21.7273V20.2955L136.347 18.3636H137.756ZM144.898 30.1591C144.042 30.1591 143.313 29.9261 142.711 29.4602C142.109 28.9905 141.648 28.3106 141.33 27.4205C141.012 26.5265 140.853 25.447 140.853 24.1818C140.853 22.9242 141.012 21.8504 141.33 20.9602C141.652 20.0663 142.114 19.3845 142.717 18.9148C143.323 18.4413 144.05 18.2045 144.898 18.2045C145.747 18.2045 146.472 18.4413 147.075 18.9148C147.681 19.3845 148.143 20.0663 148.461 20.9602C148.783 21.8504 148.944 22.9242 148.944 24.1818C148.944 25.447 148.785 26.5265 148.467 27.4205C148.148 28.3106 147.688 28.9905 147.086 29.4602C146.484 29.9261 145.754 30.1591 144.898 30.1591ZM144.898 28.9091C145.747 28.9091 146.406 28.5 146.876 27.6818C147.345 26.8636 147.58 25.697 147.58 24.1818C147.58 23.1742 147.472 22.3163 147.256 21.608C147.044 20.8996 146.737 20.3598 146.336 19.9886C145.938 19.6174 145.459 19.4318 144.898 19.4318C144.058 19.4318 143.4 19.8466 142.927 20.6761C142.453 21.5019 142.217 22.6705 142.217 24.1818C142.217 25.1894 142.323 26.0455 142.535 26.75C142.747 27.4545 143.052 27.9905 143.45 28.358C143.851 28.7254 144.334 28.9091 144.898 28.9091ZM152.126 21.2727L154.217 24.8409L156.308 21.2727H157.853L155.035 25.6364L157.853 30H156.308L154.217 26.6136L152.126 30H150.58L153.353 25.6364L150.58 21.2727H152.126Z" fill="black"/>
<path d="M34.5 39L40.9952 51.75H28.0048L34.5 39Z" fill="#2E2626"/>
</svg>
